name rise30.2954peak35.7071fall66.7804.mot
datacolumns 19
datarows 30
range 21.93159200000000 21.97992200000000
endheader
time	ground_force1_vx	ground_force1_vy	ground_force1_vz	ground_force1_px	ground_force1_py	ground_force1_pz	ground_force2_vx	ground_force2_vy	ground_force2_vz	ground_force2_px	ground_force2_py	ground_force2_pz	ground_torque1_x	ground_torque1_y	ground_torque1_z	ground_torque2_x	ground_torque2_y	ground_torque2_z	
21.93159200000000	64.38636700000001	770.65888299999995	55.17543500000000	0.27750800000000	0.00000000000000	0.12605600000000	0.00000000000000	0.00000000000000	0.00000000000000	0.00000000000000	0.00000000000000	0.00000000000000	0.00000000000000	13.19031300000000	0.00000000000000	0.00000000000000	0.00000000000000	0.00000000000000	
21.93325800000000	63.75647300000000	772.98785499999997	55.15175200000000	0.27673800000000	0.00000000000000	0.12600500000000	0.00000000000000	0.00000000000000	0.00000000000000	0.00000000000000	0.00000000000000	0.00000000000000	0.00000000000000	13.21409300000000	0.00000000000000	0.00000000000000	0.00000000000000	0.00000000000000	
21.93491600000000	63.12838400000000	775.18756099999996	55.13026000000000	0.27599400000000	0.00000000000000	0.12595400000000	0.00000000000000	0.00000000000000	0.00000000000000	0.00000000000000	0.00000000000000	0.00000000000000	0.00000000000000	13.24100000000000	0.00000000000000	0.00000000000000	0.00000000000000	0.00000000000000	
21.93658900000000	62.50242900000000	777.25579800000003	55.11125700000000	0.27527200000000	0.00000000000000	0.12590400000000	0.00000000000000	0.00000000000000	0.00000000000000	0.00000000000000	0.00000000000000	0.00000000000000	0.00000000000000	13.27107000000000	0.00000000000000	0.00000000000000	0.00000000000000	0.00000000000000	
21.93825800000000	61.87884900000000	779.19053299999996	55.09495300000000	0.27457100000000	0.00000000000000	0.12585500000000	0.00000000000000	0.00000000000000	0.00000000000000	0.00000000000000	0.00000000000000	0.00000000000000	0.00000000000000	13.30430300000000	0.00000000000000	0.00000000000000	0.00000000000000	0.00000000000000	
21.93992400000000	61.25779600000000	780.98991999999998	55.08146900000000	0.27388800000000	0.00000000000000	0.12580600000000	0.00000000000000	0.00000000000000	0.00000000000000	0.00000000000000	0.00000000000000	0.00000000000000	0.00000000000000	13.34066300000000	0.00000000000000	0.00000000000000	0.00000000000000	0.00000000000000	
21.94158400000000	60.63934700000000	782.65231800000004	55.07084800000000	0.27322200000000	0.00000000000000	0.12575800000000	0.00000000000000	0.00000000000000	0.00000000000000	0.00000000000000	0.00000000000000	0.00000000000000	0.00000000000000	13.38007800000000	0.00000000000000	0.00000000000000	0.00000000000000	0.00000000000000	
21.94325100000000	60.02350000000000	784.17630199999996	55.06305000000000	0.27256900000000	0.00000000000000	0.12571200000000	0.00000000000000	0.00000000000000	0.00000000000000	0.00000000000000	0.00000000000000	0.00000000000000	0.00000000000000	13.42244400000000	0.00000000000000	0.00000000000000	0.00000000000000	0.00000000000000	
21.94492300000000	59.41018500000000	785.56067800000005	55.05795800000000	0.27192700000000	0.00000000000000	0.12566600000000	0.00000000000000	0.00000000000000	0.00000000000000	0.00000000000000	0.00000000000000	0.00000000000000	0.00000000000000	13.46762400000000	0.00000000000000	0.00000000000000	0.00000000000000	0.00000000000000	
21.94658600000000	58.79926900000000	786.80449499999997	55.05538800000000	0.27129400000000	0.00000000000000	0.12562200000000	0.00000000000000	0.00000000000000	0.00000000000000	0.00000000000000	0.00000000000000	0.00000000000000	0.00000000000000	13.51545300000000	0.00000000000000	0.00000000000000	0.00000000000000	0.00000000000000	
21.94825000000000	58.19056400000000	787.90705500000001	55.05508500000000	0.27066600000000	0.00000000000000	0.12557900000000	0.00000000000000	0.00000000000000	0.00000000000000	0.00000000000000	0.00000000000000	0.00000000000000	0.00000000000000	13.56573800000000	0.00000000000000	0.00000000000000	0.00000000000000	0.00000000000000	
21.94991800000000	57.58382900000000	788.86792500000001	55.05673200000000	0.27004200000000	0.00000000000000	0.12553700000000	0.00000000000000	0.00000000000000	0.00000000000000	0.00000000000000	0.00000000000000	0.00000000000000	0.00000000000000	13.61825900000000	0.00000000000000	0.00000000000000	0.00000000000000	0.00000000000000	
21.95158300000000	56.97878100000000	789.68694200000004	55.05995800000000	0.26941900000000	0.00000000000000	0.12549700000000	0.00000000000000	0.00000000000000	0.00000000000000	0.00000000000000	0.00000000000000	0.00000000000000	0.00000000000000	13.67277600000000	0.00000000000000	0.00000000000000	0.00000000000000	0.00000000000000	
21.95325100000000	56.37510000000000	790.36422000000005	55.06433700000000	0.26879300000000	0.00000000000000	0.12545900000000	0.00000000000000	0.00000000000000	0.00000000000000	0.00000000000000	0.00000000000000	0.00000000000000	0.00000000000000	13.72902300000000	0.00000000000000	0.00000000000000	0.00000000000000	0.00000000000000	
21.95492500000000	55.77243700000000	790.90015900000003	55.06939900000000	0.26816200000000	0.00000000000000	0.12542200000000	0.00000000000000	0.00000000000000	0.00000000000000	0.00000000000000	0.00000000000000	0.00000000000000	0.00000000000000	13.78671900000000	0.00000000000000	0.00000000000000	0.00000000000000	0.00000000000000	
21.95658400000000	55.17041600000000	791.29544599999997	55.07463500000000	0.26752500000000	0.00000000000000	0.12538600000000	0.00000000000000	0.00000000000000	0.00000000000000	0.00000000000000	0.00000000000000	0.00000000000000	0.00000000000000	13.84556600000000	0.00000000000000	0.00000000000000	0.00000000000000	0.00000000000000	
21.95825200000000	54.56864900000000	791.55105500000002	55.07949900000000	0.26687800000000	0.00000000000000	0.12535300000000	0.00000000000000	0.00000000000000	0.00000000000000	0.00000000000000	0.00000000000000	0.00000000000000	0.00000000000000	13.90525000000000	0.00000000000000	0.00000000000000	0.00000000000000	0.00000000000000	
21.95991800000000	53.96673600000000	791.66825600000004	55.08341800000000	0.26621800000000	0.00000000000000	0.12532100000000	0.00000000000000	0.00000000000000	0.00000000000000	0.00000000000000	0.00000000000000	0.00000000000000	0.00000000000000	13.96544900000000	0.00000000000000	0.00000000000000	0.00000000000000	0.00000000000000	
21.96159000000000	53.36427300000000	791.64860599999997	55.08579900000000	0.26554400000000	0.00000000000000	0.12529100000000	0.00000000000000	0.00000000000000	0.00000000000000	0.00000000000000	0.00000000000000	0.00000000000000	0.00000000000000	14.02583100000000	0.00000000000000	0.00000000000000	0.00000000000000	0.00000000000000	
21.96325300000000	52.76086000000000	791.49395400000003	55.08602800000000	0.26485300000000	0.00000000000000	0.12526300000000	0.00000000000000	0.00000000000000	0.00000000000000	0.00000000000000	0.00000000000000	0.00000000000000	0.00000000000000	14.08605700000000	0.00000000000000	0.00000000000000	0.00000000000000	0.00000000000000	
21.96491700000000	52.15610600000000	791.20643399999994	55.08348500000000	0.26414400000000	0.00000000000000	0.12523700000000	0.00000000000000	0.00000000000000	0.00000000000000	0.00000000000000	0.00000000000000	0.00000000000000	0.00000000000000	14.14578700000000	0.00000000000000	0.00000000000000	0.00000000000000	0.00000000000000	
21.96658900000000	51.54963600000000	790.78846399999998	55.07754400000000	0.26341300000000	0.00000000000000	0.12521300000000	0.00000000000000	0.00000000000000	0.00000000000000	0.00000000000000	0.00000000000000	0.00000000000000	0.00000000000000	14.20467700000000	0.00000000000000	0.00000000000000	0.00000000000000	0.00000000000000	
21.96825000000000	50.94109300000000	790.24273700000003	55.06758000000000	0.26265900000000	0.00000000000000	0.12519000000000	0.00000000000000	0.00000000000000	0.00000000000000	0.00000000000000	0.00000000000000	0.00000000000000	0.00000000000000	14.26239000000000	0.00000000000000	0.00000000000000	0.00000000000000	0.00000000000000	
21.96992000000000	50.33014700000000	789.57221800000002	55.05297500000000	0.26188100000000	0.00000000000000	0.12516900000000	0.00000000000000	0.00000000000000	0.00000000000000	0.00000000000000	0.00000000000000	0.00000000000000	0.00000000000000	14.31858800000000	0.00000000000000	0.00000000000000	0.00000000000000	0.00000000000000	
21.97158700000000	49.71650200000000	788.78013199999998	55.03312300000000	0.26107600000000	0.00000000000000	0.12515100000000	0.00000000000000	0.00000000000000	0.00000000000000	0.00000000000000	0.00000000000000	0.00000000000000	0.00000000000000	14.37294300000000	0.00000000000000	0.00000000000000	0.00000000000000	0.00000000000000	
21.97325500000000	49.09989100000000	787.86996099999999	55.00743700000000	0.26024400000000	0.00000000000000	0.12513400000000	0.00000000000000	0.00000000000000	0.00000000000000	0.00000000000000	0.00000000000000	0.00000000000000	0.00000000000000	14.42513600000000	0.00000000000000	0.00000000000000	0.00000000000000	0.00000000000000	
21.97492400000000	48.48009300000000	786.84542799999997	54.97534900000000	0.25938200000000	0.00000000000000	0.12511800000000	0.00000000000000	0.00000000000000	0.00000000000000	0.00000000000000	0.00000000000000	0.00000000000000	0.00000000000000	14.47486000000000	0.00000000000000	0.00000000000000	0.00000000000000	0.00000000000000	
21.97658800000000	47.85692600000000	785.71048900000005	54.93632000000000	0.25849000000000	0.00000000000000	0.12510500000000	0.00000000000000	0.00000000000000	0.00000000000000	0.00000000000000	0.00000000000000	0.00000000000000	0.00000000000000	14.52182100000000	0.00000000000000	0.00000000000000	0.00000000000000	0.00000000000000	
21.97825400000000	47.23025500000000	784.46932100000004	54.88984300000000	0.25756800000000	0.00000000000000	0.12509300000000	0.00000000000000	0.00000000000000	0.00000000000000	0.00000000000000	0.00000000000000	0.00000000000000	0.00000000000000	14.56573900000000	0.00000000000000	0.00000000000000	0.00000000000000	0.00000000000000	
21.97992200000000	46.59999500000000	783.12630799999999	54.83544200000000	0.25661300000000	0.00000000000000	0.12508300000000	0.00000000000000	0.00000000000000	0.00000000000000	0.00000000000000	0.00000000000000	0.00000000000000	0.00000000000000	14.60635600000000	0.00000000000000	0.00000000000000	0.00000000000000	0.00000000000000	
